# Blender v2.76 (sub 0) OBJ File: ''
# www.blender.org
mtllib TranslateEntity.mtl
o Cone
v 1.005463 0.104910 -0.253275
v 1.553748 0.000000 0.000000
v 1.005463 0.053482 -0.268875
v 1.005463 0.000000 -0.274142
v 1.005463 -0.053482 -0.268875
v 1.005463 0.152305 -0.227941
v 1.005463 0.193848 -0.193848
v 1.005463 0.227941 -0.152305
v 1.005463 0.253275 -0.104910
v 1.005463 0.268875 -0.053483
v 1.005463 0.274143 0.000000
v 1.005463 0.268875 0.053483
v 1.005463 0.253275 0.104910
v 1.005463 0.227942 0.152306
v 1.005463 0.193848 0.193848
v 1.005463 0.152306 0.227941
v 1.005463 0.104910 0.253275
v 1.005463 0.053483 0.268875
v 1.005463 0.000000 0.274143
v 1.005463 -0.053482 0.268875
v 1.005463 -0.104910 0.253275
v 1.005463 -0.152305 0.227941
v 1.005463 -0.193848 0.193848
v 1.005463 -0.227941 0.152306
v 1.005463 -0.253274 0.104910
v 1.005463 -0.268875 0.053483
v 1.005463 -0.274142 0.000000
v 1.005463 -0.268875 -0.053482
v 1.005463 -0.253275 -0.104910
v 1.005463 -0.227941 -0.152305
v 1.005463 -0.193848 -0.193848
v 1.005463 -0.152305 -0.227941
v 1.005463 -0.104910 -0.253274
v 0.000000 -0.100000 0.100000
v 1.000000 -0.100000 0.100000
v 1.000000 0.100000 0.100000
v 0.000000 0.100000 0.100000
v 0.000001 -0.100000 -0.100000
v 0.000000 0.100000 -0.100000
v 1.000000 0.100000 -0.100000
v 1.000000 -0.100000 -0.100000
v 0.100000 -0.000000 0.100000
v 0.100000 1.000000 0.100000
v -0.100000 1.000000 0.100000
v -0.100000 -0.000000 0.100000
v 0.100000 0.000001 -0.100000
v -0.100000 0.000000 -0.100000
v -0.100000 1.000000 -0.100000
v 0.100000 1.000000 -0.100000
v -0.104910 1.005463 -0.253275
v 0.000000 1.553748 0.000000
v -0.053482 1.005463 -0.268875
v 0.000000 1.005463 -0.274142
v 0.053482 1.005463 -0.268875
v -0.152305 1.005463 -0.227941
v -0.193848 1.005463 -0.193848
v -0.227941 1.005463 -0.152305
v -0.253275 1.005463 -0.104910
v -0.268875 1.005463 -0.053483
v -0.274143 1.005463 0.000000
v -0.268875 1.005463 0.053483
v -0.253275 1.005463 0.104910
v -0.227941 1.005463 0.152306
v -0.193848 1.005463 0.193848
v -0.152305 1.005463 0.227941
v -0.104910 1.005463 0.253275
v -0.053482 1.005463 0.268875
v 0.000000 1.005463 0.274143
v 0.053482 1.005463 0.268875
v 0.104910 1.005463 0.253275
v 0.152305 1.005463 0.227941
v 0.193848 1.005463 0.193848
v 0.227941 1.005463 0.152306
v 0.253275 1.005463 0.104910
v 0.268875 1.005463 0.053483
v 0.274143 1.005463 0.000000
v 0.268875 1.005463 -0.053482
v 0.253275 1.005463 -0.104910
v 0.227941 1.005463 -0.152305
v 0.193848 1.005463 -0.193848
v 0.152305 1.005463 -0.227941
v 0.104910 1.005463 -0.253274
v -0.104910 0.253275 1.005463
v 0.000000 -0.000000 1.553748
v -0.053482 0.268875 1.005463
v 0.000000 0.274142 1.005463
v 0.053482 0.268875 1.005463
v -0.152305 0.227941 1.005463
v -0.193848 0.193848 1.005463
v -0.227941 0.152305 1.005463
v -0.253275 0.104910 1.005463
v -0.268875 0.053483 1.005463
v -0.274143 -0.000000 1.005463
v -0.268875 -0.053483 1.005463
v -0.253275 -0.104910 1.005463
v -0.227941 -0.152306 1.005463
v -0.193848 -0.193848 1.005463
v -0.152305 -0.227941 1.005463
v -0.104910 -0.253275 1.005463
v -0.053482 -0.268875 1.005463
v 0.000000 -0.274143 1.005463
v 0.053482 -0.268875 1.005463
v 0.104910 -0.253275 1.005463
v 0.152305 -0.227941 1.005463
v 0.193848 -0.193848 1.005463
v 0.227941 -0.152306 1.005463
v 0.253275 -0.104910 1.005463
v 0.268875 -0.053483 1.005463
v 0.274143 -0.000000 1.005463
v 0.268875 0.053482 1.005463
v 0.253275 0.104910 1.005463
v 0.227941 0.152305 1.005463
v 0.193848 0.193848 1.005463
v 0.152305 0.227941 1.005463
v 0.104910 0.253274 1.005463
v 0.100000 -0.100000 0.000000
v 0.100000 -0.100000 1.000000
v -0.100000 -0.100000 1.000000
v -0.100000 -0.100000 0.000000
v 0.100000 0.100000 0.000001
v -0.100000 0.100000 0.000000
v -0.100000 0.100000 1.000000
v 0.100000 0.100000 1.000000
vn 0.445500 0.259900 -0.856700
vn 0.445500 -0.087800 -0.891000
vn 0.445500 0.422000 -0.789600
vn 0.445500 0.568000 -0.692100
vn 0.445500 0.692100 -0.568000
vn 0.445500 0.789600 -0.422000
vn 0.445500 0.856700 -0.259900
vn 0.445500 0.891000 -0.087800
vn 0.445500 0.891000 0.087800
vn 0.445500 0.856700 0.259900
vn 0.445500 0.789600 0.422000
vn 0.445500 0.692100 0.568000
vn 0.445500 0.568000 0.692100
vn 0.445500 0.422000 0.789600
vn 0.445500 0.259900 0.856700
vn 0.445500 0.087800 0.891000
vn 0.445500 -0.087700 0.891000
vn 0.445500 -0.259900 0.856700
vn 0.445500 -0.422000 0.789600
vn 0.445500 -0.568000 0.692100
vn 0.445500 -0.692100 0.568000
vn 0.445500 -0.789600 0.422000
vn 0.445500 -0.856700 0.259900
vn 0.445500 -0.891000 0.087800
vn 0.445500 -0.891000 -0.087800
vn 0.445500 -0.856700 -0.259900
vn 0.445500 -0.789600 -0.422000
vn 0.445500 -0.692100 -0.568000
vn 0.445500 -0.568000 -0.692100
vn 0.445500 -0.422000 -0.789600
vn 0.445500 0.087800 -0.891000
vn 0.445500 -0.259900 -0.856700
vn -1.000000 -0.000000 -0.000000
vn -0.259900 0.445500 -0.856700
vn 0.087800 0.445500 -0.891000
vn -0.422000 0.445500 -0.789600
vn -0.568000 0.445500 -0.692100
vn -0.692100 0.445500 -0.568000
vn -0.789600 0.445500 -0.422000
vn -0.856700 0.445500 -0.259900
vn -0.891000 0.445500 -0.087800
vn -0.891000 0.445500 0.087800
vn -0.856700 0.445500 0.259900
vn -0.789600 0.445500 0.422000
vn -0.692100 0.445500 0.568000
vn -0.568000 0.445500 0.692100
vn -0.422000 0.445500 0.789600
vn -0.259900 0.445500 0.856700
vn -0.087800 0.445500 0.891000
vn 0.087800 0.445500 0.891000
vn 0.259900 0.445500 0.856700
vn 0.422000 0.445500 0.789600
vn 0.568000 0.445500 0.692100
vn 0.692100 0.445500 0.568000
vn 0.789600 0.445500 0.422000
vn 0.856700 0.445500 0.259900
vn 0.891000 0.445500 0.087800
vn 0.891000 0.445500 -0.087800
vn 0.856700 0.445500 -0.259900
vn 0.789600 0.445500 -0.422000
vn 0.692100 0.445500 -0.568000
vn 0.568000 0.445500 -0.692100
vn 0.422000 0.445500 -0.789600
vn -0.087800 0.445500 -0.891000
vn 0.259900 0.445500 -0.856700
vn 0.000000 -1.000000 -0.000000
vn -0.259900 0.856700 0.445500
vn 0.087800 0.891000 0.445500
vn -0.422000 0.789600 0.445500
vn -0.568000 0.692100 0.445500
vn -0.692100 0.568000 0.445500
vn -0.789600 0.422000 0.445500
vn -0.856700 0.259900 0.445500
vn -0.891000 0.087800 0.445500
vn -0.891000 -0.087800 0.445500
vn -0.856700 -0.259900 0.445500
vn -0.789600 -0.422000 0.445500
vn -0.692100 -0.568000 0.445500
vn -0.568000 -0.692100 0.445500
vn -0.422000 -0.789600 0.445500
vn -0.259900 -0.856700 0.445500
vn -0.087800 -0.891000 0.445500
vn 0.087800 -0.891000 0.445500
vn 0.259900 -0.856700 0.445500
vn 0.422000 -0.789600 0.445500
vn 0.568000 -0.692100 0.445500
vn 0.692100 -0.568000 0.445500
vn 0.789600 -0.422000 0.445500
vn 0.856700 -0.259900 0.445500
vn 0.891000 -0.087800 0.445500
vn 0.891000 0.087800 0.445500
vn 0.856700 0.259900 0.445500
vn 0.789600 0.422000 0.445500
vn 0.692100 0.568000 0.445500
vn 0.568000 0.692100 0.445500
vn 0.422000 0.789600 0.445500
vn -0.087800 0.891000 0.445500
vn 0.259900 0.856700 0.445500
vn 0.000000 0.000000 -1.000000
vn -0.000000 -0.000000 1.000000
vn 1.000000 0.000000 0.000000
vn -0.000000 1.000000 0.000000
usemtl None
s off
f 1//1 2//1 3//1
f 4//2 2//2 5//2
f 6//3 2//3 1//3
f 7//4 2//4 6//4
f 8//5 2//5 7//5
f 9//6 2//6 8//6
f 10//7 2//7 9//7
f 11//8 2//8 10//8
f 12//9 2//9 11//9
f 13//10 2//10 12//10
f 14//11 2//11 13//11
f 15//12 2//12 14//12
f 16//13 2//13 15//13
f 17//14 2//14 16//14
f 18//15 2//15 17//15
f 19//16 2//16 18//16
f 20//17 2//17 19//17
f 21//18 2//18 20//18
f 22//19 2//19 21//19
f 23//20 2//20 22//20
f 24//21 2//21 23//21
f 25//22 2//22 24//22
f 26//23 2//23 25//23
f 27//24 2//24 26//24
f 28//25 2//25 27//25
f 29//26 2//26 28//26
f 30//27 2//27 29//27
f 31//28 2//28 30//28
f 32//29 2//29 31//29
f 33//30 2//30 32//30
f 3//31 2//31 4//31
f 5//32 2//32 33//32
f 4//33 5//33 33//33 32//33 31//33 30//33 29//33 28//33 27//33 26//33 25//33 24//33 23//33 22//33 21//33 20//33 19//33 18//33 17//33 16//33 15//33 14//33 13//33 12//33 11//33 10//33 9//33 8//33 7//33 6//33 1//33 3//33
f 50//34 51//34 52//34
f 53//35 51//35 54//35
f 55//36 51//36 50//36
f 56//37 51//37 55//37
f 57//38 51//38 56//38
f 58//39 51//39 57//39
f 59//40 51//40 58//40
f 60//41 51//41 59//41
f 61//42 51//42 60//42
f 62//43 51//43 61//43
f 63//44 51//44 62//44
f 64//45 51//45 63//45
f 65//46 51//46 64//46
f 66//47 51//47 65//47
f 67//48 51//48 66//48
f 68//49 51//49 67//49
f 69//50 51//50 68//50
f 70//51 51//51 69//51
f 71//52 51//52 70//52
f 72//53 51//53 71//53
f 73//54 51//54 72//54
f 74//55 51//55 73//55
f 75//56 51//56 74//56
f 76//57 51//57 75//57
f 77//58 51//58 76//58
f 78//59 51//59 77//59
f 79//60 51//60 78//60
f 80//61 51//61 79//61
f 81//62 51//62 80//62
f 82//63 51//63 81//63
f 52//64 51//64 53//64
f 54//65 51//65 82//65
f 53//66 54//66 82//66 81//66 80//66 79//66 78//66 77//66 76//66 75//66 74//66 73//66 72//66 71//66 70//66 69//66 68//66 67//66 66//66 65//66 64//66 63//66 62//66 61//66 60//66 59//66 58//66 57//66 56//66 55//66 50//66 52//66
f 83//67 84//67 85//67
f 86//68 84//68 87//68
f 88//69 84//69 83//69
f 89//70 84//70 88//70
f 90//71 84//71 89//71
f 91//72 84//72 90//72
f 92//73 84//73 91//73
f 93//74 84//74 92//74
f 94//75 84//75 93//75
f 95//76 84//76 94//76
f 96//77 84//77 95//77
f 97//78 84//78 96//78
f 98//79 84//79 97//79
f 99//80 84//80 98//80
f 100//81 84//81 99//81
f 101//82 84//82 100//82
f 102//83 84//83 101//83
f 103//84 84//84 102//84
f 104//85 84//85 103//85
f 105//86 84//86 104//86
f 106//87 84//87 105//87
f 107//88 84//88 106//88
f 108//89 84//89 107//89
f 109//90 84//90 108//90
f 110//91 84//91 109//91
f 111//92 84//92 110//92
f 112//93 84//93 111//93
f 113//94 84//94 112//94
f 114//95 84//95 113//95
f 115//96 84//96 114//96
f 85//97 84//97 86//97
f 87//98 84//98 115//98
f 86//99 87//99 115//99 114//99 113//99 112//99 111//99 110//99 109//99 108//99 107//99 106//99 105//99 104//99 103//99 102//99 101//99 100//99 99//99 98//99 97//99 96//99 95//99 94//99 93//99 92//99 91//99 90//99 89//99 88//99 83//99 85//99
usemtl Material.001
s 1
f 34//100 35//100 36//100 37//100
f 38//99 39//99 40//99 41//99
f 34//66 38//66 41//66 35//66
f 35//101 41//101 40//101 36//101
f 36//102 40//102 39//102 37//102
f 38//33 34//33 37//33 39//33
f 42//100 43//100 44//100 45//100
f 46//99 47//99 48//99 49//99
f 42//101 46//101 49//101 43//101
f 43//102 49//102 48//102 44//102
f 44//33 48//33 47//33 45//33
f 46//66 42//66 45//66 47//66
f 116//66 117//66 118//66 119//66
f 120//102 121//102 122//102 123//102
f 116//101 120//101 123//101 117//101
f 117//100 123//100 122//100 118//100
f 118//33 122//33 121//33 119//33
f 120//99 116//99 119//99 121//99
